<svg width="994" height="324" viewBox="0 0 994 324" fill="none" xmlns="http://www.w3.org/2000/svg">
<line x1="357" y1="209.5" x2="551" y2="209.5" stroke="white" stroke-width="3"/>
<line x1="633" y1="209.5" x2="994" y2="209.5" stroke="white" stroke-width="3"/>
<path d="M356.102 279V238.914H371.141C374.203 238.914 376.655 239.324 378.496 240.145C380.355 240.947 381.805 242.195 382.844 243.891C383.901 245.568 384.43 247.327 384.43 249.168C384.43 250.882 383.965 252.495 383.035 254.008C382.105 255.521 380.702 256.742 378.824 257.672C381.249 258.383 383.108 259.595 384.402 261.309C385.715 263.022 386.371 265.046 386.371 267.379C386.371 269.257 385.97 271.007 385.168 272.629C384.384 274.233 383.409 275.473 382.242 276.348C381.076 277.223 379.608 277.888 377.84 278.344C376.09 278.781 373.939 279 371.387 279H356.102ZM361.406 255.758H370.074C372.426 255.758 374.112 255.603 375.133 255.293C376.482 254.892 377.493 254.227 378.168 253.297C378.861 252.367 379.207 251.201 379.207 249.797C379.207 248.466 378.888 247.299 378.25 246.297C377.612 245.276 376.701 244.583 375.516 244.219C374.331 243.836 372.298 243.645 369.418 243.645H361.406V255.758ZM361.406 274.27H371.387C373.1 274.27 374.303 274.206 374.996 274.078C376.217 273.859 377.238 273.495 378.059 272.984C378.879 272.474 379.553 271.736 380.082 270.77C380.611 269.785 380.875 268.655 380.875 267.379C380.875 265.884 380.492 264.59 379.727 263.496C378.961 262.384 377.895 261.609 376.527 261.172C375.178 260.716 373.228 260.488 370.676 260.488H361.406V274.27ZM393.07 244.574V238.914H397.992V244.574H393.07ZM393.07 279V249.961H397.992V279H393.07ZM424.543 279V274.734C422.283 278.016 419.211 279.656 415.328 279.656C413.615 279.656 412.01 279.328 410.516 278.672C409.039 278.016 407.936 277.195 407.207 276.211C406.496 275.208 405.995 273.987 405.703 272.547C405.503 271.581 405.402 270.049 405.402 267.953V249.961H410.324V266.066C410.324 268.637 410.424 270.368 410.625 271.262C410.935 272.556 411.591 273.577 412.594 274.324C413.596 275.053 414.836 275.418 416.312 275.418C417.789 275.418 419.174 275.044 420.469 274.297C421.763 273.531 422.674 272.501 423.203 271.207C423.75 269.895 424.023 267.999 424.023 265.52V249.961H428.945V279H424.543ZM436.629 279V249.961H441.059V254.363C442.189 252.303 443.228 250.945 444.176 250.289C445.142 249.633 446.199 249.305 447.348 249.305C449.007 249.305 450.693 249.833 452.406 250.891L450.711 255.457C449.508 254.746 448.305 254.391 447.102 254.391C446.026 254.391 445.06 254.719 444.203 255.375C443.346 256.013 442.736 256.906 442.371 258.055C441.824 259.805 441.551 261.719 441.551 263.797V279H436.629ZM453.5 264.48C453.5 259.103 454.995 255.12 457.984 252.531C460.482 250.38 463.526 249.305 467.117 249.305C471.109 249.305 474.372 250.617 476.906 253.242C479.44 255.849 480.707 259.458 480.707 264.07C480.707 267.807 480.142 270.751 479.012 272.902C477.9 275.035 476.268 276.694 474.117 277.879C471.984 279.064 469.651 279.656 467.117 279.656C463.052 279.656 459.762 278.353 457.246 275.746C454.749 273.139 453.5 269.384 453.5 264.48ZM458.559 264.48C458.559 268.199 459.37 270.988 460.992 272.848C462.615 274.689 464.656 275.609 467.117 275.609C469.56 275.609 471.592 274.68 473.215 272.82C474.837 270.961 475.648 268.126 475.648 264.316C475.648 260.725 474.828 258.009 473.188 256.168C471.565 254.309 469.542 253.379 467.117 253.379C464.656 253.379 462.615 254.299 460.992 256.141C459.37 257.982 458.559 260.762 458.559 264.48ZM529.023 238.914H534.328V262.074C534.328 266.103 533.872 269.302 532.961 271.672C532.049 274.042 530.4 275.974 528.012 277.469C525.642 278.945 522.525 279.684 518.66 279.684C514.905 279.684 511.833 279.036 509.445 277.742C507.057 276.448 505.353 274.579 504.332 272.137C503.311 269.676 502.801 266.322 502.801 262.074V238.914H508.105V262.047C508.105 265.529 508.424 268.099 509.062 269.758C509.719 271.398 510.831 272.665 512.398 273.559C513.984 274.452 515.917 274.898 518.195 274.898C522.096 274.898 524.876 274.014 526.535 272.246C528.194 270.478 529.023 267.078 529.023 262.047V238.914ZM540.59 270.332L545.457 269.566C545.73 271.517 546.487 273.012 547.727 274.051C548.984 275.09 550.734 275.609 552.977 275.609C555.237 275.609 556.914 275.154 558.008 274.242C559.102 273.312 559.648 272.228 559.648 270.988C559.648 269.876 559.165 269.001 558.199 268.363C557.525 267.926 555.848 267.37 553.168 266.695C549.559 265.784 547.052 265 545.648 264.344C544.263 263.669 543.206 262.749 542.477 261.582C541.766 260.397 541.41 259.094 541.41 257.672C541.41 256.378 541.702 255.184 542.285 254.09C542.887 252.978 543.698 252.057 544.719 251.328C545.484 250.763 546.523 250.289 547.836 249.906C549.167 249.505 550.589 249.305 552.102 249.305C554.38 249.305 556.376 249.633 558.09 250.289C559.822 250.945 561.098 251.839 561.918 252.969C562.738 254.081 563.303 255.576 563.613 257.453L558.801 258.109C558.582 256.615 557.944 255.448 556.887 254.609C555.848 253.771 554.371 253.352 552.457 253.352C550.197 253.352 548.583 253.725 547.617 254.473C546.651 255.22 546.168 256.095 546.168 257.098C546.168 257.736 546.368 258.31 546.77 258.82C547.171 259.349 547.799 259.786 548.656 260.133C549.148 260.315 550.598 260.734 553.004 261.391C556.486 262.32 558.91 263.086 560.277 263.688C561.663 264.271 562.747 265.128 563.531 266.258C564.315 267.388 564.707 268.792 564.707 270.469C564.707 272.109 564.224 273.659 563.258 275.117C562.31 276.557 560.934 277.678 559.129 278.48C557.324 279.264 555.283 279.656 553.004 279.656C549.23 279.656 546.35 278.872 544.363 277.305C542.395 275.737 541.137 273.413 540.59 270.332ZM570.504 263.305L566.949 266.312V261.992L570.504 258.984V238.914H575.398V254.828L579.09 251.684V255.977L575.398 259.121V279H570.504V263.305ZM602.059 279V274.734C599.798 278.016 596.727 279.656 592.844 279.656C591.13 279.656 589.526 279.328 588.031 278.672C586.555 278.016 585.452 277.195 584.723 276.211C584.012 275.208 583.51 273.987 583.219 272.547C583.018 271.581 582.918 270.049 582.918 267.953V249.961H587.84V266.066C587.84 268.637 587.94 270.368 588.141 271.262C588.451 272.556 589.107 273.577 590.109 274.324C591.112 275.053 592.352 275.418 593.828 275.418C595.305 275.418 596.69 275.044 597.984 274.297C599.279 273.531 600.19 272.501 600.719 271.207C601.266 269.895 601.539 267.999 601.539 265.52V249.961H606.461V279H602.059ZM613.297 281.406L618.082 282.117C618.283 283.594 618.839 284.669 619.75 285.344C620.971 286.255 622.639 286.711 624.754 286.711C627.033 286.711 628.792 286.255 630.031 285.344C631.271 284.432 632.109 283.156 632.547 281.516C632.802 280.513 632.921 278.408 632.902 275.199C630.751 277.733 628.072 279 624.863 279C620.871 279 617.781 277.56 615.594 274.68C613.406 271.799 612.312 268.345 612.312 264.316C612.312 261.546 612.814 258.993 613.816 256.66C614.819 254.309 616.268 252.495 618.164 251.219C620.078 249.943 622.32 249.305 624.891 249.305C628.318 249.305 631.143 250.69 633.367 253.461V249.961H637.906V275.062C637.906 279.583 637.441 282.783 636.512 284.66C635.6 286.556 634.142 288.051 632.137 289.145C630.15 290.238 627.698 290.785 624.781 290.785C621.318 290.785 618.52 290.001 616.387 288.434C614.254 286.884 613.224 284.542 613.297 281.406ZM617.371 263.961C617.371 267.771 618.128 270.551 619.641 272.301C621.154 274.051 623.049 274.926 625.328 274.926C627.589 274.926 629.484 274.06 631.016 272.328C632.547 270.578 633.312 267.844 633.312 264.125C633.312 260.57 632.52 257.891 630.934 256.086C629.366 254.281 627.47 253.379 625.246 253.379C623.059 253.379 621.199 254.272 619.668 256.059C618.137 257.827 617.371 260.461 617.371 263.961ZM661.586 279V238.914H676.707C679.368 238.914 681.401 239.042 682.805 239.297C684.773 239.625 686.423 240.254 687.754 241.184C689.085 242.095 690.151 243.38 690.953 245.039C691.773 246.698 692.184 248.521 692.184 250.508C692.184 253.917 691.099 256.806 688.93 259.176C686.76 261.527 682.841 262.703 677.172 262.703H666.891V279H661.586ZM666.891 257.973H677.254C680.681 257.973 683.115 257.335 684.555 256.059C685.995 254.783 686.715 252.987 686.715 250.672C686.715 248.995 686.286 247.564 685.43 246.379C684.591 245.176 683.479 244.383 682.094 244C681.201 243.763 679.551 243.645 677.145 243.645H666.891V257.973ZM698.254 279V249.961H702.684V254.363C703.814 252.303 704.853 250.945 705.801 250.289C706.767 249.633 707.824 249.305 708.973 249.305C710.632 249.305 712.318 249.833 714.031 250.891L712.336 255.457C711.133 254.746 709.93 254.391 708.727 254.391C707.651 254.391 706.685 254.719 705.828 255.375C704.971 256.013 704.361 256.906 703.996 258.055C703.449 259.805 703.176 261.719 703.176 263.797V279H698.254ZM715.125 264.48C715.125 259.103 716.62 255.12 719.609 252.531C722.107 250.38 725.151 249.305 728.742 249.305C732.734 249.305 735.997 250.617 738.531 253.242C741.065 255.849 742.332 259.458 742.332 264.07C742.332 267.807 741.767 270.751 740.637 272.902C739.525 275.035 737.893 276.694 735.742 277.879C733.609 279.064 731.276 279.656 728.742 279.656C724.677 279.656 721.387 278.353 718.871 275.746C716.374 273.139 715.125 269.384 715.125 264.48ZM720.184 264.48C720.184 268.199 720.995 270.988 722.617 272.848C724.24 274.689 726.281 275.609 728.742 275.609C731.185 275.609 733.217 274.68 734.84 272.82C736.462 270.961 737.273 268.126 737.273 264.316C737.273 260.725 736.453 258.009 734.812 256.168C733.19 254.309 731.167 253.379 728.742 253.379C726.281 253.379 724.24 254.299 722.617 256.141C720.995 257.982 720.184 260.762 720.184 264.48ZM748.102 244.629V238.914H753.023V244.629H748.102ZM741.867 290.266L742.797 286.082C743.781 286.337 744.556 286.465 745.121 286.465C746.124 286.465 746.871 286.128 747.363 285.453C747.855 284.797 748.102 283.138 748.102 280.477V249.961H753.023V280.586C753.023 284.159 752.559 286.647 751.629 288.051C750.444 289.874 748.475 290.785 745.723 290.785C744.392 290.785 743.107 290.612 741.867 290.266ZM780.477 269.648L785.562 270.277C784.76 273.249 783.275 275.555 781.105 277.195C778.936 278.836 776.165 279.656 772.793 279.656C768.546 279.656 765.173 278.353 762.676 275.746C760.197 273.121 758.957 269.448 758.957 264.727C758.957 259.841 760.215 256.049 762.73 253.352C765.246 250.654 768.509 249.305 772.52 249.305C776.402 249.305 779.574 250.626 782.035 253.27C784.496 255.913 785.727 259.632 785.727 264.426C785.727 264.717 785.717 265.155 785.699 265.738H764.043C764.225 268.928 765.128 271.371 766.75 273.066C768.372 274.762 770.396 275.609 772.82 275.609C774.625 275.609 776.165 275.135 777.441 274.188C778.717 273.24 779.729 271.727 780.477 269.648ZM764.316 261.691H780.531C780.312 259.249 779.693 257.417 778.672 256.195C777.104 254.299 775.072 253.352 772.574 253.352C770.314 253.352 768.409 254.108 766.859 255.621C765.328 257.134 764.48 259.158 764.316 261.691ZM791.797 279V238.914H796.719V261.773L808.367 249.961H814.738L803.637 260.734L815.859 279H809.789L800.191 264.152L796.719 267.488V279H791.797ZM830.516 274.598L831.227 278.945C829.841 279.237 828.602 279.383 827.508 279.383C825.721 279.383 824.336 279.1 823.352 278.535C822.367 277.97 821.674 277.232 821.273 276.32C820.872 275.391 820.672 273.449 820.672 270.496V253.789H817.062V249.961H820.672V242.77L825.566 239.816V249.961H830.516V253.789H825.566V270.77C825.566 272.173 825.648 273.076 825.812 273.477C825.995 273.878 826.277 274.197 826.66 274.434C827.061 274.671 827.626 274.789 828.355 274.789C828.902 274.789 829.622 274.725 830.516 274.598ZM833.523 264.48C833.523 259.103 835.018 255.12 838.008 252.531C840.505 250.38 843.549 249.305 847.141 249.305C851.133 249.305 854.396 250.617 856.93 253.242C859.464 255.849 860.73 259.458 860.73 264.07C860.73 267.807 860.165 270.751 859.035 272.902C857.923 275.035 856.292 276.694 854.141 277.879C852.008 279.064 849.674 279.656 847.141 279.656C843.076 279.656 839.785 278.353 837.27 275.746C834.772 273.139 833.523 269.384 833.523 264.48ZM838.582 264.48C838.582 268.199 839.393 270.988 841.016 272.848C842.638 274.689 844.68 275.609 847.141 275.609C849.583 275.609 851.616 274.68 853.238 272.82C854.861 270.961 855.672 268.126 855.672 264.316C855.672 260.725 854.852 258.009 853.211 256.168C851.589 254.309 849.565 253.379 847.141 253.379C844.68 253.379 842.638 254.299 841.016 256.141C839.393 257.982 838.582 260.762 838.582 264.48ZM871.887 279L863 249.961H868.086L872.707 266.723L874.43 272.957C874.503 272.647 875.004 270.651 875.934 266.969L880.555 249.961H885.613L889.961 266.805L891.41 272.355L893.078 266.75L898.055 249.961H902.84L893.762 279H888.648L884.027 261.609L882.906 256.66L877.027 279H871.887ZM906.777 290.184L906.23 285.562C907.306 285.854 908.245 286 909.047 286C910.141 286 911.016 285.818 911.672 285.453C912.328 285.089 912.866 284.578 913.285 283.922C913.595 283.43 914.096 282.208 914.789 280.258C914.88 279.984 915.026 279.583 915.227 279.055L904.207 249.961H909.512L915.555 266.777C916.339 268.91 917.04 271.152 917.66 273.504C918.225 271.243 918.9 269.038 919.684 266.887L925.891 249.961H930.812L919.766 279.492C918.581 282.682 917.66 284.879 917.004 286.082C916.129 287.704 915.126 288.889 913.996 289.637C912.866 290.402 911.517 290.785 909.949 290.785C909.001 290.785 907.944 290.585 906.777 290.184ZM953.945 268.363L958.785 268.992C958.257 272.328 956.898 274.944 954.711 276.84C952.542 278.717 949.871 279.656 946.699 279.656C942.725 279.656 939.526 278.362 937.102 275.773C934.695 273.167 933.492 269.439 933.492 264.59C933.492 261.454 934.012 258.711 935.051 256.359C936.09 254.008 937.667 252.249 939.781 251.082C941.914 249.897 944.229 249.305 946.727 249.305C949.88 249.305 952.46 250.107 954.465 251.711C956.47 253.297 957.755 255.557 958.32 258.492L953.535 259.23C953.079 257.28 952.268 255.812 951.102 254.828C949.953 253.844 948.559 253.352 946.918 253.352C944.439 253.352 942.424 254.245 940.875 256.031C939.326 257.799 938.551 260.607 938.551 264.453C938.551 268.354 939.298 271.189 940.793 272.957C942.288 274.725 944.238 275.609 946.645 275.609C948.577 275.609 950.19 275.017 951.484 273.832C952.779 272.647 953.599 270.824 953.945 268.363ZM962.996 279V238.914H967.918V253.297C970.215 250.635 973.113 249.305 976.613 249.305C978.764 249.305 980.633 249.733 982.219 250.59C983.805 251.428 984.935 252.595 985.609 254.09C986.302 255.585 986.648 257.754 986.648 260.598V279H981.727V260.598C981.727 258.137 981.189 256.35 980.113 255.238C979.056 254.108 977.552 253.543 975.602 253.543C974.143 253.543 972.767 253.926 971.473 254.691C970.197 255.439 969.285 256.46 968.738 257.754C968.191 259.048 967.918 260.835 967.918 263.113V279H962.996Z" fill="white"/>
<path d="M383.194 174.549C384.823 174.549 386.359 174.339 387.802 173.921C389.292 173.502 390.688 172.943 391.992 172.245C393.295 171.547 394.436 170.778 395.413 169.941C396.437 169.103 397.298 168.288 397.997 167.497V135.378C396.042 133.795 393.854 132.492 391.433 131.467C389.013 130.397 386.452 129.861 383.752 129.861C382.03 129.861 380.215 130.211 378.306 130.909C376.444 131.607 374.722 132.794 373.139 134.47C371.603 136.146 370.3 138.473 369.229 141.452C368.205 144.431 367.693 148.225 367.693 152.834C367.693 159.63 368.996 164.936 371.603 168.754C374.256 172.571 378.12 174.502 383.194 174.549ZM350.586 153.532C350.586 147.62 351.401 142.36 353.03 137.752C354.659 133.097 356.87 129.21 359.663 126.091C362.503 122.926 365.738 120.575 369.369 119.039C373 117.456 376.77 116.665 380.68 116.665C382.496 116.665 384.218 116.828 385.847 117.153C387.476 117.479 389.013 117.922 390.456 118.48C391.899 119.039 393.249 119.667 394.505 120.365C395.762 121.064 396.926 121.785 397.997 122.53H398.136C398.09 121.599 398.043 120.296 397.997 118.62C397.997 116.897 397.997 115.035 397.997 113.034V84.8947H414.545V165.891C414.545 170.36 414.591 174.2 414.685 177.412C414.778 180.624 414.871 183.486 414.964 186H400.021L399.323 178.808H399.044C398.066 179.972 396.879 181.112 395.483 182.23C394.133 183.347 392.62 184.324 390.944 185.162C389.315 185.954 387.5 186.582 385.498 187.047C383.543 187.513 381.402 187.746 379.074 187.746C375.397 187.746 371.859 187.094 368.461 185.791C365.109 184.487 362.084 182.486 359.384 179.786C356.73 177.039 354.589 173.478 352.96 169.103C351.377 164.68 350.586 159.49 350.586 153.532ZM474.035 131.467H472.639C467.565 131.467 463.096 132.235 459.232 133.772C455.415 135.261 452.459 137.565 450.365 140.684V186H433.816V118.34H447.502L449.038 127.767H449.317C451.272 124.322 453.949 121.622 457.347 119.667C460.792 117.665 464.911 116.665 469.706 116.665C471.382 116.665 472.825 116.758 474.035 116.944V131.467ZM531.221 152.205C531.221 148.621 530.802 145.456 529.964 142.709C529.126 139.963 527.963 137.658 526.473 135.797C524.984 133.935 523.191 132.538 521.097 131.607C519.002 130.676 516.721 130.211 514.254 130.211C511.833 130.211 509.576 130.676 507.481 131.607C505.433 132.538 503.664 133.935 502.174 135.797C500.685 137.658 499.521 139.963 498.683 142.709C497.845 145.456 497.426 148.621 497.426 152.205C497.426 155.79 497.845 158.955 498.683 161.701C499.521 164.448 500.685 166.752 502.174 168.614C503.71 170.429 505.503 171.826 507.551 172.803C509.646 173.734 511.926 174.2 514.394 174.2C516.861 174.2 519.118 173.734 521.167 172.803C523.215 171.826 524.984 170.429 526.473 168.614C527.963 166.752 529.126 164.448 529.964 161.701C530.802 158.955 531.221 155.79 531.221 152.205ZM548.328 152.205C548.328 157.512 547.537 162.353 545.954 166.729C544.371 171.104 542.09 174.852 539.111 177.97C536.179 181.089 532.618 183.51 528.428 185.232C524.239 186.908 519.561 187.746 514.394 187.746C509.087 187.746 504.316 186.908 500.08 185.232C495.89 183.51 492.329 181.089 489.396 177.97C486.464 174.852 484.206 171.104 482.624 166.729C481.087 162.353 480.319 157.512 480.319 152.205C480.319 146.899 481.111 142.057 482.693 137.682C484.276 133.306 486.534 129.559 489.466 126.44C492.445 123.321 496.03 120.924 500.219 119.248C504.409 117.526 509.087 116.665 514.254 116.665C519.561 116.665 524.309 117.526 528.498 119.248C532.734 120.924 536.318 123.321 539.251 126.44C542.184 129.559 544.418 133.306 545.954 137.682C547.537 142.057 548.328 146.899 548.328 152.205ZM606.911 187.746C606.911 186.815 606.911 185.674 606.911 184.324C606.957 182.928 607.027 181.764 607.12 180.833H606.98C605.956 181.671 604.769 182.509 603.419 183.347C602.116 184.138 600.673 184.883 599.09 185.581C597.508 186.233 595.762 186.745 593.854 187.117C591.945 187.536 589.99 187.746 587.988 187.746C584.404 187.746 580.889 187.117 577.445 185.86C574.047 184.557 571.021 182.532 568.368 179.786C565.714 176.993 563.573 173.432 561.944 169.103C560.315 164.774 559.5 159.56 559.5 153.462C559.5 147.364 560.315 142.034 561.944 137.472C563.62 132.864 565.831 129.024 568.577 125.951C571.324 122.879 574.466 120.575 578.003 119.039C581.588 117.456 585.265 116.665 589.036 116.665C593.179 116.665 596.856 117.549 600.068 119.318C603.28 121.04 605.91 123.251 607.958 125.951H608.237L608.936 118.34H623.459V187.257C623.459 191.214 623.133 194.612 622.481 197.451C621.83 200.291 620.875 202.804 619.619 204.992C618.129 207.553 616.221 209.787 613.893 211.695C611.612 213.604 608.982 215.187 606.003 216.443C603.07 217.7 599.835 218.631 596.297 219.236C592.76 219.888 589.012 220.214 585.056 220.214C582.821 220.214 580.633 220.121 578.492 219.935C576.351 219.795 574.326 219.562 572.417 219.236C570.556 218.957 568.833 218.608 567.25 218.189C565.714 217.817 564.411 217.421 563.34 217.002V203.526C566.413 204.55 569.625 205.318 572.976 205.83C576.374 206.389 579.935 206.668 583.659 206.668C591.061 206.668 596.786 205.225 600.836 202.339C604.886 199.499 606.911 195.17 606.911 189.352V187.746ZM592.108 174.549C593.784 174.549 595.366 174.339 596.856 173.921C598.346 173.502 599.719 172.966 600.976 172.315C602.232 171.663 603.35 170.941 604.327 170.15C605.351 169.359 606.212 168.567 606.911 167.776V137.542C605.142 135.447 602.954 133.702 600.347 132.305C597.74 130.909 594.971 130.187 592.038 130.141C591.014 130.141 589.92 130.28 588.756 130.56C587.639 130.792 586.499 131.235 585.335 131.886C584.171 132.538 583.054 133.422 581.983 134.54C580.959 135.61 580.052 136.984 579.26 138.659C578.469 140.335 577.817 142.337 577.305 144.664C576.84 146.992 576.607 149.692 576.607 152.764C576.607 156.162 576.933 159.211 577.584 161.911C578.236 164.564 579.214 166.845 580.517 168.754C581.82 170.616 583.426 172.059 585.335 173.083C587.29 174.06 589.548 174.549 592.108 174.549ZM689.024 152.205C689.024 148.621 688.605 145.456 687.767 142.709C686.929 139.963 685.765 137.658 684.276 135.797C682.786 133.935 680.994 132.538 678.899 131.607C676.805 130.676 674.524 130.211 672.057 130.211C669.636 130.211 667.378 130.676 665.284 131.607C663.236 132.538 661.467 133.935 659.977 135.797C658.487 137.658 657.324 139.963 656.486 142.709C655.648 145.456 655.229 148.621 655.229 152.205C655.229 155.79 655.648 158.955 656.486 161.701C657.324 164.448 658.487 166.752 659.977 168.614C661.513 170.429 663.305 171.826 665.354 172.803C667.448 173.734 669.729 174.2 672.196 174.2C674.663 174.2 676.921 173.734 678.969 172.803C681.017 171.826 682.786 170.429 684.276 168.614C685.765 166.752 686.929 164.448 687.767 161.701C688.605 158.955 689.024 155.79 689.024 152.205ZM706.131 152.205C706.131 157.512 705.34 162.353 703.757 166.729C702.174 171.104 699.893 174.852 696.914 177.97C693.981 181.089 690.42 183.51 686.231 185.232C682.042 186.908 677.363 187.746 672.196 187.746C666.89 187.746 662.118 186.908 657.882 185.232C653.693 183.51 650.132 181.089 647.199 177.97C644.267 174.852 642.009 171.104 640.426 166.729C638.89 162.353 638.122 157.512 638.122 152.205C638.122 146.899 638.913 142.057 640.496 137.682C642.079 133.306 644.336 129.559 647.269 126.44C650.248 123.321 653.833 120.924 658.022 119.248C662.211 117.526 666.89 116.665 672.057 116.665C677.363 116.665 682.111 117.526 686.301 119.248C690.537 120.924 694.121 123.321 697.054 126.44C699.986 129.559 702.221 133.306 703.757 137.682C705.34 142.057 706.131 146.899 706.131 152.205ZM765.132 136.704C763.829 143.454 762.293 149.994 760.524 156.325L752.354 186H736.085L712.415 118.34H729.871L738.599 146.689C740.601 153.253 742.37 159.607 743.906 165.751H744.185C745.488 159.793 747.048 153.439 748.863 146.689L756.614 118.34H774.07L781.681 146.689C783.31 152.694 784.869 159.048 786.359 165.751H786.638C788.221 159.467 789.99 153.113 791.945 146.689L800.673 118.34H818.129L794.458 186H778.189L770.02 156.325C768.158 149.668 766.622 143.128 765.412 136.704H765.132ZM828.323 118.34H844.872V186H828.323V118.34ZM827.904 84.8947H845.291V102.839H827.904V84.8947ZM898.357 174.409C901.569 174.409 904.92 174.083 908.412 173.432C911.903 172.78 915.441 171.849 919.025 170.639V183.836C916.884 184.767 913.602 185.651 909.18 186.489C904.757 187.327 900.172 187.746 895.424 187.746C890.63 187.746 886.068 187.141 881.739 185.93C877.456 184.673 873.709 182.672 870.497 179.925C867.285 177.179 864.725 173.618 862.816 169.242C860.954 164.867 860.023 159.56 860.023 153.322C860.023 147.178 860.908 141.801 862.677 137.193C864.446 132.585 866.82 128.768 869.799 125.742C872.778 122.716 876.176 120.458 879.993 118.969C883.857 117.433 887.837 116.665 891.933 116.665C896.216 116.665 900.149 117.316 903.733 118.62C907.364 119.923 910.483 121.971 913.09 124.764C915.743 127.557 917.791 131.165 919.234 135.587C920.724 139.963 921.469 145.153 921.469 151.158C921.422 153.485 921.352 155.464 921.259 157.093H876.921C877.154 160.212 877.852 162.888 879.016 165.123C880.179 167.311 881.692 169.103 883.554 170.499C885.463 171.849 887.674 172.85 890.188 173.502C892.701 174.107 895.424 174.409 898.357 174.409ZM891.724 129.582C889.629 129.582 887.767 129.978 886.138 130.769C884.508 131.514 883.089 132.561 881.878 133.911C880.715 135.215 879.784 136.751 879.085 138.52C878.387 140.289 877.922 142.174 877.689 144.175H904.292C904.292 142.174 904.013 140.289 903.454 138.52C902.942 136.751 902.151 135.215 901.08 133.911C900.056 132.561 898.753 131.514 897.17 130.769C895.634 129.978 893.818 129.582 891.724 129.582ZM985.567 184.534C983.473 185.418 980.912 186.163 977.887 186.768C974.861 187.42 971.672 187.746 968.321 187.746C963.433 187.746 958.871 187.047 954.635 185.651C950.399 184.255 946.699 182.137 943.533 179.297C940.368 176.457 937.877 172.873 936.062 168.544C934.247 164.168 933.339 159.071 933.339 153.253C933.339 146.736 934.386 141.15 936.481 136.495C938.576 131.84 941.276 128.069 944.581 125.183C947.932 122.251 951.679 120.109 955.822 118.759C960.012 117.363 964.131 116.665 968.181 116.665C971.207 116.665 974.116 116.944 976.909 117.503C979.702 118.015 982.239 118.736 984.52 119.667V133.143C982.472 132.259 980.284 131.561 977.957 131.048C975.676 130.49 973.208 130.211 970.555 130.211C967.902 130.211 965.365 130.63 962.944 131.467C960.524 132.259 958.382 133.539 956.521 135.308C954.659 137.077 953.169 139.427 952.052 142.36C950.981 145.246 950.446 148.737 950.446 152.834C950.446 155.813 950.865 158.629 951.703 161.282C952.541 163.889 953.751 166.124 955.333 167.985C956.963 169.847 959.011 171.36 961.478 172.524C963.992 173.641 966.948 174.2 970.346 174.2C973.371 174.2 976.118 173.897 978.585 173.292C981.052 172.687 983.38 171.942 985.567 171.058V184.534Z" fill="white"/>
<rect x="2.12132" y="161.927" width="226" height="226" rx="20.5" transform="rotate(-45 2.12132 161.927)" fill="#006EDD" stroke="black" stroke-width="3"/>
<path d="M49.9401 184.088L40.4066 174.554L41.6005 173.36L43.0458 174.806C42.6807 173.83 42.5161 173.109 42.552 172.642C42.588 172.164 42.7645 171.766 43.0817 171.448C43.5246 171.006 44.1499 170.727 44.9579 170.614L46.0082 172.562C45.4456 172.657 45.0087 172.861 44.6975 173.172C44.4163 173.453 44.2577 173.809 44.2218 174.24C44.1859 174.671 44.2966 175.111 44.5539 175.56C45.0028 176.344 45.5743 177.083 46.2685 177.777L51.2597 182.768L49.9401 184.088ZM50.4421 174.052C48.7963 172.407 47.8986 170.821 47.749 169.295C47.6053 167.763 48.0632 166.467 49.1225 165.408C50.1638 164.366 51.4535 163.914 52.9915 164.052C54.5296 164.19 56.0886 165.049 57.6685 166.628C59.3801 168.34 60.3107 169.959 60.4603 171.485C60.6099 173.011 60.1521 174.307 59.0869 175.372C58.0395 176.419 56.7469 176.874 55.2088 176.737C53.6708 176.587 52.0819 175.692 50.4421 174.052ZM51.7976 172.697C53.0304 173.93 54.1735 174.624 55.2268 174.78C56.2741 174.929 57.1299 174.672 57.7942 174.008C58.4166 173.385 58.647 172.55 58.4854 171.503C58.3238 170.444 57.6326 169.304 56.4117 168.083C55.1849 166.856 54.0478 166.168 53.0005 166.018C51.9472 165.862 51.0884 166.117 50.4241 166.781C49.7957 167.409 49.5623 168.247 49.7239 169.295C49.8855 170.342 50.5767 171.476 51.7976 172.697ZM64.8583 169.17L51.6981 156.009L53.0177 154.69L60.5224 162.195L59.7863 155.175L61.5009 153.46L62.0485 159.986L71.3307 162.697L69.7059 164.322L62.237 162.042L62.3986 164.071L66.1779 167.85L64.8583 169.17ZM77.3618 156.666L76.0511 155.356L74.0672 143.407C73.5346 144.012 73.0528 144.529 72.6219 144.96L69.4351 148.147L68.1245 146.836L74.5161 140.445L75.5843 141.513L77.3977 151.801L77.6849 153.722C78.2235 153.075 78.7532 152.492 79.2738 151.971L82.8916 148.354L84.283 149.745L77.3618 156.666ZM90.234 141.442C90.2519 142.346 90.1382 143.154 89.8928 143.866C89.6475 144.578 89.2675 145.191 88.7528 145.706C87.9389 146.52 87.0442 146.924 86.0687 146.918C85.0932 146.912 84.1895 146.493 83.3576 145.661C82.807 145.111 82.433 144.509 82.2355 143.857C82.038 143.205 82.0171 142.561 82.1727 141.927C82.3283 141.292 82.7502 140.517 83.4384 139.602C84.3601 138.369 84.9645 137.393 85.2518 136.675L84.8478 136.253C84.1955 135.601 83.621 135.26 83.1242 135.23C82.4121 135.176 81.7149 135.49 81.0326 136.173C80.4162 136.789 80.084 137.378 80.0362 137.941C79.9823 138.498 80.2337 139.198 80.7902 140.042L79.2731 141.128C78.4353 139.919 78.0642 138.8 78.16 137.77C78.2617 136.735 78.8392 135.691 79.8925 134.638C80.7124 133.818 81.5114 133.33 82.2894 133.174C83.0614 133.013 83.7347 133.099 84.3092 133.435C84.8897 133.764 85.6168 134.365 86.4906 135.239L88.6451 137.393C90.1532 138.902 91.1317 139.826 91.5805 140.167C92.0294 140.496 92.5231 140.763 93.0617 140.966L91.6793 142.349C91.2125 142.157 90.7307 141.855 90.234 141.442ZM86.5175 137.941C86.2721 138.665 85.7545 139.59 84.9645 140.715C84.5037 141.367 84.2254 141.867 84.1297 142.214C84.0279 142.555 84.0279 142.902 84.1297 143.255C84.2314 143.597 84.4289 143.914 84.7221 144.207C85.177 144.662 85.6827 144.886 86.2392 144.88C86.7898 144.868 87.3135 144.614 87.8102 144.117C88.283 143.644 88.5882 143.094 88.7258 142.465C88.8695 141.831 88.8336 141.215 88.6181 140.616C88.3967 140.012 87.894 139.318 87.11 138.534L86.5175 137.941ZM90.2512 133.471L90.2871 135.41L88.8688 133.992L88.8328 132.053L82.2438 125.464L83.5724 124.135L88.7969 129.36L88.7521 127.34L90.1614 128.749L90.2063 130.769L96.7326 137.295L95.404 138.624L90.2512 133.471ZM99.9456 134.082L98.1053 132.242L99.6134 130.734L101.454 132.574L99.9456 134.082ZM114.02 120.008L112.691 121.337L102.395 111.04C102.449 111.704 102.407 112.482 102.269 113.374C102.126 114.26 101.934 115.014 101.695 115.636L100.133 114.074C100.444 112.925 100.576 111.77 100.528 110.609C100.486 109.442 100.291 108.458 99.9441 107.656L100.806 106.794L114.02 120.008ZM115.303 112.639L116.434 111.22C118.026 112.405 119.319 112.501 120.312 111.508C120.755 111.065 121.006 110.514 121.066 109.856C121.126 109.186 120.896 108.339 120.375 107.315C119.854 106.292 119.079 105.266 118.05 104.236L117.727 103.913C117.984 104.721 118.035 105.514 117.879 106.292C117.724 107.07 117.404 107.701 116.919 108.186C116.039 109.066 114.896 109.443 113.49 109.317C112.083 109.18 110.713 108.443 109.378 107.109C108.002 105.732 107.248 104.32 107.116 102.872C106.984 101.411 107.391 100.209 108.337 99.263C109.007 98.5927 109.854 98.1887 110.877 98.0511C111.901 97.9135 113.002 98.1169 114.181 98.6615C115.36 99.2061 116.76 100.289 118.382 101.911C120.189 103.719 121.422 105.293 122.081 106.633C122.739 107.974 123.005 109.168 122.88 110.215C122.76 111.256 122.338 112.139 121.614 112.863C120.794 113.683 119.83 114.09 118.723 114.084C117.61 114.072 116.47 113.59 115.303 112.639ZM114.926 101.4C113.986 100.46 113.038 99.9303 112.08 99.8106C111.123 99.6909 110.372 99.9033 109.827 100.448C109.259 101.016 109.037 101.812 109.163 102.836C109.294 103.853 109.839 104.841 110.797 105.798C111.658 106.66 112.559 107.136 113.499 107.226C114.432 107.309 115.195 107.055 115.788 106.462C116.374 105.876 116.614 105.122 116.506 104.2C116.398 103.279 115.872 102.345 114.926 101.4ZM124.423 103.519L125.554 102.1C127.146 103.285 128.439 103.381 129.432 102.388C129.875 101.945 130.126 101.394 130.186 100.736C130.246 100.066 130.015 99.2188 129.495 98.1955C128.974 97.1721 128.199 96.1457 127.17 95.1164L126.847 94.7932C127.104 95.6011 127.155 96.3941 126.999 97.1721C126.844 97.9501 126.523 98.5815 126.039 99.0662C125.159 99.946 124.016 100.323 122.609 100.197C121.203 100.06 119.833 99.3236 118.498 97.989C117.122 96.6125 116.368 95.2001 116.236 93.7519C116.104 92.2916 116.511 91.0887 117.457 90.1431C118.127 89.4729 118.974 89.0689 119.997 88.9312C121.021 88.7936 122.122 88.9971 123.301 89.5417C124.48 90.0863 125.88 91.1695 127.502 92.7913C129.309 94.5987 130.542 96.1726 131.2 97.5132C131.859 98.8538 132.125 100.048 131.999 101.095C131.88 102.136 131.458 103.019 130.734 103.743C129.914 104.563 128.95 104.97 127.843 104.964C126.73 104.952 125.59 104.47 124.423 103.519ZM124.046 92.2796C123.106 91.3401 122.158 90.8104 121.2 90.6907C120.243 90.571 119.492 90.7835 118.947 91.3281C118.378 91.8966 118.157 92.6926 118.283 93.716C118.414 94.7333 118.959 95.7208 119.916 96.6783C120.778 97.5401 121.679 98.0159 122.618 98.1057C123.552 98.1895 124.315 97.9351 124.908 97.3426C125.494 96.7561 125.733 96.0021 125.626 95.0805C125.518 94.1588 124.991 93.2252 124.046 92.2796ZM131.289 88.4652C130.517 88.7584 129.772 88.8213 129.054 88.6537C128.336 88.4741 127.645 88.0522 126.981 87.3879C125.981 86.3885 125.46 85.2813 125.419 84.0665C125.383 82.8456 125.811 81.7893 126.702 80.8976C127.6 79.9999 128.665 79.575 129.898 79.6229C131.137 79.6648 132.262 80.1914 133.273 81.2028C133.908 81.8372 134.315 82.5075 134.494 83.2137C134.668 83.9139 134.611 84.653 134.324 85.431C135.233 85.036 136.149 84.9522 137.071 85.1796C137.998 85.401 138.887 85.9367 139.737 86.7865C140.91 87.9595 141.526 89.2581 141.586 90.6825C141.646 92.0948 141.173 93.3037 140.168 94.3092C139.15 95.3265 137.932 95.8083 136.514 95.7544C135.096 95.6886 133.785 95.0542 132.582 93.8513C131.702 92.9716 131.158 92.0679 130.948 91.1403C130.739 90.2007 130.853 89.309 131.289 88.4652ZM128.3 85.9786C128.946 86.6249 129.632 86.969 130.356 87.0109C131.08 87.0528 131.69 86.8254 132.187 86.3287C132.672 85.8439 132.896 85.2424 132.86 84.5243C132.825 83.8061 132.507 83.1478 131.909 82.5494C131.292 81.9329 130.613 81.6068 129.871 81.5709C129.129 81.523 128.519 81.7384 128.04 82.2172C127.561 82.696 127.34 83.3004 127.376 84.0306C127.417 84.7547 127.726 85.404 128.3 85.9786ZM133.938 92.4958C134.746 93.3037 135.613 93.7406 136.541 93.8065C137.469 93.8603 138.235 93.585 138.839 92.9806C139.45 92.3701 139.728 91.6131 139.674 90.7094C139.62 89.8057 139.192 88.9529 138.39 88.151C137.582 87.3431 136.715 86.9122 135.787 86.8583C134.853 86.7985 134.081 87.0737 133.471 87.6842C132.866 88.2886 132.597 89.0487 132.663 89.9643C132.735 90.874 133.16 91.7178 133.938 92.4958Z" fill="white"/>
<path d="M20.139 153.569L24.9955 148.712C26.0907 147.617 27.0093 146.866 27.7514 146.459C28.7508 145.914 29.8161 145.657 30.9472 145.687C32.0783 145.717 33.2094 146.01 34.3405 146.567C35.4656 147.117 36.6446 148.009 37.8774 149.242C38.9606 150.325 39.7596 151.393 40.2742 152.447C40.9026 153.733 41.2078 154.978 41.1899 156.181C41.1779 157.091 40.9056 158.063 40.373 159.098C39.972 159.87 39.2808 160.747 38.2993 161.729L33.2991 166.729L20.139 153.569ZM25.0224 153.138L33.739 161.854L35.7229 159.87C36.465 159.128 36.9587 158.551 37.2041 158.138C37.5273 157.599 37.7008 157.061 37.7248 156.522C37.7547 155.977 37.5662 155.322 37.1592 154.556C36.7463 153.784 36.0311 152.889 35.0137 151.872C33.9964 150.855 33.1256 150.163 32.4015 149.798C31.6773 149.433 31.0011 149.26 30.3727 149.278C29.7443 149.296 29.1279 149.499 28.5234 149.888C28.0686 150.175 27.2996 150.861 26.2163 151.944L25.0224 153.138ZM46.603 153.425L33.4428 140.265L39.0354 134.672C40.4418 133.266 41.5819 132.365 42.4556 131.97C43.3294 131.563 44.26 131.47 45.2475 131.692C46.2349 131.913 47.1177 132.413 47.8957 133.191C48.8831 134.178 49.4098 135.286 49.4756 136.512C49.5354 137.733 49.0716 139.005 48.0842 140.328C48.9938 140.088 49.8347 139.984 50.6067 140.013C51.3847 140.037 52.6026 140.244 54.2603 140.633L58.4346 141.593L55.2567 144.771L50.472 143.829C48.7664 143.488 47.6563 143.311 47.1416 143.299C46.6209 143.281 46.1721 143.365 45.7951 143.55C45.412 143.73 44.9153 144.125 44.3049 144.735L43.7663 145.274L49.2602 150.768L46.603 153.425ZM41.6657 143.173L43.6316 141.207C44.9063 139.933 45.6484 139.083 45.8579 138.658C46.0674 138.233 46.1302 137.799 46.0464 137.356C45.9626 136.913 45.7232 136.494 45.3283 136.1C44.8854 135.657 44.4096 135.42 43.9009 135.39C43.3922 135.348 42.8865 135.507 42.3838 135.866C42.1384 136.052 41.4771 136.683 40.3999 137.76L38.3262 139.834L41.6657 143.173ZM52.842 134.187C51.5014 132.847 50.5768 131.521 50.0681 130.211C49.697 129.241 49.5025 128.233 49.4846 127.185C49.4726 126.132 49.6462 125.169 50.0052 124.295C50.478 123.128 51.25 122.009 52.3213 120.937C54.2603 118.998 56.4118 118.05 58.7757 118.092C61.1456 118.128 63.4018 119.217 65.5443 121.359C67.6689 123.484 68.7551 125.725 68.803 128.083C68.8448 130.435 67.8993 132.578 65.9662 134.511C64.0093 136.468 61.8578 137.428 59.5118 137.392C57.1599 137.35 54.9366 136.282 52.842 134.187ZM55.4901 131.36C56.9803 132.85 58.4555 133.637 59.9158 133.721C61.37 133.798 62.6268 133.308 63.6861 132.248C64.7454 131.189 65.2331 129.941 65.1493 128.505C65.0656 127.057 64.2606 125.57 62.7345 124.043C61.2264 122.535 59.7692 121.742 58.3628 121.665C56.9624 121.581 55.7146 122.086 54.6194 123.182C53.5242 124.277 53.0185 125.537 53.1023 126.961C53.1801 128.379 53.976 129.846 55.4901 131.36ZM75.4728 114.878L73.2555 112.661L78.9828 106.933L84.2253 112.176C84.2074 113.271 83.8752 114.555 83.2289 116.027C82.5826 117.487 81.7178 118.759 80.6346 119.842C79.2581 121.219 77.7709 122.131 76.173 122.58C74.5691 123.023 72.9742 122.966 71.3883 122.41C69.7964 121.847 68.3691 120.934 67.1063 119.672C65.7358 118.301 64.8052 116.796 64.3145 115.156C63.8237 113.517 63.8477 111.859 64.3863 110.183C64.7933 108.902 65.6251 107.634 66.8819 106.377C68.5157 104.743 70.1345 103.812 71.7384 103.585C73.3423 103.346 74.8803 103.699 76.3526 104.644L74.2071 107.777C73.3752 107.316 72.5164 107.158 71.6307 107.301C70.745 107.433 69.9191 107.882 69.1531 108.648C67.992 109.809 67.4355 111.102 67.4833 112.526C67.5372 113.944 68.2883 115.378 69.7366 116.826C71.2985 118.388 72.8186 119.214 74.2968 119.304C75.7691 119.387 77.0677 118.867 78.1928 117.742C78.7494 117.185 79.1983 116.521 79.5394 115.749C79.8805 114.965 80.0959 114.217 80.1857 113.505L78.516 111.835L75.4728 114.878ZM81.4604 105.569C80.1199 104.228 79.1953 102.903 78.6866 101.592C78.3155 100.623 78.121 99.6142 78.1031 98.5669C78.0911 97.5136 78.2646 96.5501 78.6237 95.6763C79.0965 94.5093 79.8685 93.3902 80.9398 92.319C82.8788 90.3799 85.0303 89.4314 87.3942 89.4733C89.7641 89.5092 92.0203 90.5984 94.1628 92.7409C96.2874 94.8654 97.3736 97.1067 97.4214 99.4646C97.4633 101.817 96.5178 103.959 94.5847 105.892C92.6278 107.849 90.4763 108.81 88.1303 108.774C85.7783 108.732 83.5551 107.664 81.4604 105.569ZM84.1086 102.741C85.5988 104.231 87.074 105.018 88.5343 105.102C89.9885 105.18 91.2453 104.689 92.3046 103.63C93.3639 102.571 93.8516 101.323 93.7678 99.8865C93.684 98.4382 92.8791 96.9511 91.353 95.425C89.8449 93.9169 88.3876 93.1239 86.9813 93.0461C85.5809 92.9623 84.3331 93.468 83.2379 94.5632C82.1427 95.6584 81.637 96.9181 81.7208 98.3425C81.7986 99.7608 82.5945 101.227 84.1086 102.741ZM104.675 95.3532L88.3727 85.3349L91.0927 82.6149L102.116 89.6708L95.4824 78.2252L98.6423 75.0653L110.142 81.9506L102.969 70.7384L105.644 68.0633L115.609 84.4193L112.79 87.238L100.33 80.0206L107.556 92.4716L104.675 95.3532ZM120.088 79.9398L106.928 66.7796L109.585 64.1224L122.745 77.2826L120.088 79.9398ZM125.286 74.7421L112.126 61.5819L121.884 51.824L124.11 54.0503L117.009 61.151L119.927 64.0685L126.534 57.4615L128.751 59.6788L122.144 66.2858L125.726 69.8676L133.078 62.5155L135.295 64.7328L125.286 74.7421ZM141.13 49.2207L144.523 47.4612C145.565 49.2925 145.975 51.019 145.753 52.6409C145.532 54.2507 144.715 55.7619 143.303 57.1742C141.555 58.9217 139.523 59.7626 137.207 59.6968C134.885 59.6249 132.689 58.5537 130.618 56.483C128.428 54.2926 127.294 52.0275 127.216 49.6875C127.132 47.3415 128.012 45.2469 129.855 43.4036C131.465 41.7937 133.248 40.9619 135.205 40.908C136.366 40.8721 137.623 41.2312 138.976 41.9853L136.974 45.2439C136.136 44.7172 135.271 44.5048 134.38 44.6065C133.494 44.7023 132.698 45.1032 131.992 45.8094C131.016 46.7849 130.573 47.928 130.663 49.2386C130.759 50.5433 131.591 51.9796 133.159 53.5476C134.822 55.2113 136.307 56.097 137.611 56.2047C138.916 56.3124 140.047 55.8875 141.004 54.93C141.711 54.2238 142.094 53.392 142.154 52.4344C142.213 51.4769 141.872 50.4056 141.13 49.2207Z" fill="white"/>
<path d="M214.601 180.349C232.101 154.349 230 140.5 226.5 126L224 118.5L220 111L215.5 104.5L210 98.5L202.5 91L193.5 85L185.752 80.7738C183.587 79.5929 181.338 78.5738 179.022 77.7248L167.5 73.5L152 68.5L151.5 56L169 59.5L184 63L196.5 67L209 72L217.5 76.5L225 81L233 87L242.5 96.5L250 106.5L257 118L262.5 130.5L266 143L267.5 155L267 168L264.5 178.5L260.5 190.5L255 201.5C247.5 214 234 230.6 209.5 242.5C188.167 252.862 144.682 261.859 119.586 262.975L149.122 209.847C175.116 206.844 203.498 196.845 214.601 180.349Z" fill="#767676"/>
<path d="M152 68.5L167.5 73.5L179.022 77.7248C181.338 78.5738 183.587 79.5929 185.752 80.7738L193.5 85L202.5 91L210 98.5L215.5 104.5L220 111L224 118.5L226.5 126C230 140.5 232.101 154.349 214.601 180.349C203.496 196.849 175.101 206.849 149.101 209.849" stroke="white" stroke-width="2"/>
<path d="M151.5 56L169 59.5L184 63L196.5 67L209 72L217.5 76.5L225 81L233 87L242.5 96.5L250 106.5L257 118L262.5 130.5L266 143L267.5 155L267 168L264.5 178.5L260.5 190.5L255 201.5C247.5 214 234 230.6 209.5 242.5C188 252.943 144 262 119 263" stroke="white" stroke-width="2"/>
<path d="M135.5 236.5L152.698 235.011" stroke="white" stroke-width="6"/>
<path d="M186 229L195 226L204.5 221.5L213 216" stroke="white" stroke-width="5"/>
<path d="M231 200L236.793 192.851L241.621 184.17L245 176" stroke="white" stroke-width="4"/>
<path d="M249 155C249 152.5 249 147.3 249 146.5C249 145.7 248.222 139.167 247.833 136L245.5 128.5L242 120" stroke="white" stroke-width="3"/>
<path d="M235 106L229.909 99.8776L226.855 96.3061L217.5 88L207 81" stroke="white" stroke-width="2"/>
<path d="M190 73L175 68L162.5 64.5L152 62" stroke="white"/>
<path d="M171.5 95C206.5 119 150.5 162.5 170.5 193.5" stroke="white" stroke-width="11"/>
</svg>
